<svg xmlns="http://www.w3.org/2000/svg" version="1.1" xmlns:xlink="http://www.w3.org/1999/xlink" xmlns:svgjs="http://svgjs.dev/svgjs" width="1000" height="1012" viewBox="0 0 1000 1012"><g transform="matrix(1,0,0,1,0.8839437599913254,0.40971659919023296)"><svg viewBox="0 0 244 247" data-background-color="#ffffff" preserveAspectRatio="xMidYMid meet" height="1012" width="1000" xmlns="http://www.w3.org/2000/svg" xmlns:xlink="http://www.w3.org/1999/xlink"><g id="tight-bounds" transform="matrix(1,0,0,1,-0.2156820846114158,-0.09999999999999432)"><svg viewBox="0 0 244.43135999999998 247.2" height="247.2" width="244.43135999999998"><g><svg></svg></g><g><svg viewBox="0 0 244.43135999999998 247.2" height="247.2" width="244.43135999999998"><g transform="matrix(1,0,0,1,0,54.25264774911365)"><svg viewBox="0 0 244.43135999999998 138.6947045017727" height="138.6947045017727" width="244.43135999999998"><g><svg viewBox="0 0 244.43135999999998 138.6947045017727" height="138.6947045017727" width="244.43135999999998"><g><svg viewBox="0 0 244.43135999999998 138.6947045017727" height="138.6947045017727" width="244.43135999999998"><g><svg viewBox="0 0 244.43135999999998 138.6947045017727" height="138.6947045017727" width="244.43135999999998"><g id="textblocktransform"><svg viewBox="0 0 244.43135999999998 138.6947045017727" height="138.6947045017727" width="244.43135999999998" id="textblock"><g><svg viewBox="0 0 244.43135999999998 74.80529627791563" height="74.80529627791563" width="244.43135999999998"><g transform="matrix(1,0,0,1,0,0)"><svg width="244.43135999999998" viewBox="4.650000095367432 -36.5 120.88999938964844 37" height="74.80529627791563" data-palette-color="#000000"><path d="M8.65 0L4.65 0 4.65-36.5 8.65-36.5 8.65-21.25Q9.95-23.5 12.1-24.5 14.25-25.5 16.8-25.5L16.8-25.5Q19.5-25.5 21.7-24.48 23.9-23.45 25.23-21.35 26.55-19.25 26.55-16L26.55-16 26.55 0 22.55 0 22.55-14.6Q22.55-18.75 20.78-20.38 19-22 16.4-22L16.4-22Q14.6-22 12.8-21.15 11-20.3 9.83-18.38 8.65-16.45 8.65-13.25L8.65-13.25 8.65 0ZM45.95-25.5L45.95-25.5Q49.5-25.5 52.22-23.95 54.95-22.4 56.5-19.48 58.05-16.55 58.05-12.5L58.05-12.5Q58.05-8.45 56.5-5.53 54.95-2.6 52.22-1.05 49.5 0.5 45.95 0.5L45.95 0.5Q42.45 0.5 39.7-1.05 36.95-2.6 35.4-5.53 33.85-8.45 33.85-12.5L33.85-12.5Q33.85-16.55 35.4-19.48 36.95-22.4 39.7-23.95 42.45-25.5 45.95-25.5ZM45.95-22.05L45.95-22.05Q43.4-22.05 41.6-20.9 39.8-19.75 38.82-17.63 37.85-15.5 37.85-12.5L37.85-12.5Q37.85-9.55 38.82-7.4 39.8-5.25 41.6-4.1 43.4-2.95 45.95-2.95L45.95-2.95Q48.5-2.95 50.3-4.1 52.1-5.25 53.07-7.4 54.05-9.55 54.05-12.5L54.05-12.5Q54.05-15.5 53.07-17.63 52.1-19.75 50.3-20.9 48.5-22.05 45.95-22.05ZM67.5-31L71.5-32.1 71.5-6.9Q71.5-5.05 72.55-4.15 73.6-3.25 75.25-3.25L75.25-3.25Q76.7-3.25 77.75-3.75 78.8-4.25 79.65-5.1L79.65-5.1 81.05-1.75Q79.9-0.7 78.32-0.1 76.75 0.5 74.7 0.5L74.7 0.5Q72.8 0.5 71.15-0.18 69.5-0.85 68.52-2.33 67.55-3.8 67.5-6.2L67.5-6.2 67.5-31ZM62.5-25L80.6-25 80.6-21.55 62.5-21.55 62.5-25ZM96.99 0.5L96.99 0.5Q93.44 0.5 90.67-1.05 87.89-2.6 86.34-5.53 84.79-8.45 84.79-12.5L84.79-12.5Q84.79-16.55 86.34-19.48 87.89-22.4 90.59-23.95 93.29-25.5 96.74-25.5L96.74-25.5Q100.24-25.5 102.72-24 105.19-22.5 106.49-19.93 107.79-17.35 107.79-14.15L107.79-14.15Q107.79-13.3 107.74-12.6 107.69-11.9 107.59-11.35L107.59-11.35 87.39-11.35 87.39-14.9 105.84-14.9 103.79-14.5Q103.79-18.1 101.82-20.05 99.84-22 96.64-22L96.64-22Q94.19-22 92.42-20.88 90.64-19.75 89.67-17.63 88.69-15.5 88.69-12.5L88.69-12.5Q88.69-9.55 89.69-7.4 90.69-5.25 92.52-4.13 94.34-3 96.89-3L96.89-3Q99.64-3 101.37-4.05 103.09-5.1 104.14-6.9L104.14-6.9 107.29-5.05Q106.34-3.35 104.87-2.1 103.39-0.85 101.42-0.18 99.44 0.5 96.99 0.5ZM115.19-36.5L119.19-36.5 119.19-6.35Q119.19-4.45 119.89-3.73 120.59-3 122.14-3L122.14-3Q123.14-3 123.79-3.15 124.44-3.3 125.54-3.7L125.54-3.7 124.89-0.2Q124.09 0.15 123.14 0.33 122.19 0.5 121.19 0.5L121.19 0.5Q118.14 0.5 116.67-1.15 115.19-2.8 115.19-6.2L115.19-6.2 115.19-36.5Z" opacity="1" transform="matrix(1,0,0,1,0,0)" fill="#000000" class="wordmark-text-0" data-fill-palette-color="primary" id="text-0"></path></svg></g></svg></g><g transform="matrix(1,0,0,1,0,92.46503140202084)"><svg viewBox="0 0 244.43135999999998 46.22967309975186" height="46.22967309975186" width="244.43135999999998"><g transform="matrix(1,0,0,1,0,0)"><svg width="244.43135999999998" viewBox="3.5199999809265137 -30.399999618530273 240.47999572753906 45.48999786376953" height="46.22967309975186" data-palette-color="#61777f"><path d="M3.88 0L3.88-3.91 10.25-3.91 10.25-26.49 3.52-26.49 3.52-30.4 22.78-30.4Q25.59-30.4 27.84-30.3 30.1-30.2 31.93-29.86L31.93-29.86Q34.08-29.44 35.6-28.67 37.11-27.91 38.05-26.81 38.99-25.71 39.42-24.32 39.84-22.92 39.84-21.26L39.84-21.26Q39.84-19.9 39.37-18.58 38.89-17.26 37.96-16.1 37.04-14.94 35.63-14.01 34.23-13.09 32.37-12.5L32.37-12.5Q30.4-11.91 27.99-11.76 25.59-11.6 22.78-11.6L22.78-11.6 15.8-11.6 15.8-3.91 24.49-3.91 24.49 0 3.88 0ZM17.5-5.37L17.5-9.89 21.41-9.89Q23.56-9.89 25.12-9.91 26.68-9.94 27.92-10.02 29.15-10.11 30.14-10.27 31.13-10.42 32.13-10.67L32.13-10.67Q34.38-11.21 36.13-12.19 37.89-13.18 39.1-14.56 40.31-15.94 40.94-17.69 41.58-19.43 41.58-21.48L41.58-21.48Q41.58-24 40.61-25.82 39.65-27.64 37.6-29.1L37.6-29.1Q38.84-28.56 39.79-27.72 40.75-26.88 41.38-25.85 42.02-24.83 42.33-23.71 42.65-22.58 42.65-21.48L42.65-21.48Q42.65-19.31 41.94-17.41 41.24-15.5 39.88-13.96 38.53-12.43 36.54-11.32 34.55-10.21 31.96-9.64L31.96-9.64Q31.18-9.47 30.2-9.34 29.22-9.2 27.95-9.12 26.68-9.03 25.07-9 23.46-8.96 21.41-8.96L21.41-8.96 18.48-8.96 18.48-5.37 17.5-5.37ZM15.8-15.5L23.83-15.5Q25.9-15.5 27.44-15.6 28.98-15.7 30.15-16.04L30.15-16.04Q32.25-16.63 33.07-17.9 33.89-19.17 33.89-21.07L33.89-21.07Q33.89-22.53 33.35-23.56 32.81-24.58 31.62-25.24 30.42-25.9 28.5-26.2 26.59-26.49 23.83-26.49L23.83-26.49 15.8-26.49 15.8-15.5ZM17.5-16.97L17.5-24.78 23.66-24.78Q27.39-24.78 29.36-24.37 31.32-23.95 31.93-22.92L31.93-22.92Q31.45-23.14 30.77-23.32 30.1-23.49 29.13-23.61 28.15-23.73 26.82-23.79 25.49-23.85 23.66-23.85L23.66-23.85 18.48-23.85 18.48-16.97 17.5-16.97ZM4.83-23.85L4.83-24.78 8.72-24.78 8.72-23.85 4.83-23.85ZM5.44 1.71L26.25 1.71 26.25-2.54 27.22-2.54 27.22 2.64 5.44 2.64 5.44 1.71ZM48.12 0L48.12-3.66 53.49-3.66 53.49-19.41 48.12-19.41 48.12-23.56 58.74-23.56 58.74-19.48Q59.5-20.46 60.56-21.34 61.62-22.22 62.97-22.88 64.31-23.54 65.89-23.91 67.48-24.29 69.29-24.29L69.29-24.29Q69.83-24.29 70.63-24.26 71.44-24.22 72.17-24.1L72.17-24.1 72.17-19.31Q71.31-19.51 70.48-19.58 69.65-19.65 68.87-19.65L68.87-19.65Q66.92-19.65 65.17-19.03 63.43-18.41 62.06-17.22 60.69-16.04 59.82-14.33 58.94-12.62 58.74-10.42L58.74-10.42 58.74-3.66 67.53-3.66 67.53 0 48.12 0ZM60.45-5.13L60.45-8.23Q60.45-10.52 61.04-12.33 61.62-14.14 62.71-15.38 63.8-16.63 65.36-17.29 66.92-17.94 68.87-17.94L68.87-17.94Q69.29-17.94 69.92-17.88 70.56-17.82 71.25-17.7 71.95-17.58 72.66-17.4 73.37-17.21 73.93-16.97L73.93-16.97 73.93-22.73 74.9-22.73 74.9-15.75Q74.22-16.04 73.43-16.27 72.63-16.5 71.82-16.67 71-16.85 70.24-16.93 69.48-17.02 68.87-17.02L68.87-17.02Q67.09-17.02 65.71-16.43 64.33-15.84 63.38-14.75 62.43-13.65 61.93-12.06 61.43-10.47 61.43-8.47L61.43-8.47 61.43-5.13 60.45-5.13ZM49.59-16.77L49.59-17.7 52.47-17.7 52.47-16.77 49.59-16.77ZM49.59 1.71L69.29 1.71 69.29-2.29 70.27-2.29 70.27 2.64 49.59 2.64 49.59 1.71ZM80.52-11.69L80.52-11.69Q80.52-13.96 81.47-16.21 82.42-18.46 84.29-20.25 86.16-22.05 88.92-23.17 91.68-24.29 95.27-24.29L95.27-24.29Q96.41-24.29 97.72-24.12 99.03-23.95 100.33-23.56 101.64-23.17 102.88-22.52 104.13-21.88 105.15-20.95L105.15-20.95 105.15-23.56 115.65-23.56 115.65-19.41 110.28-19.41 110.28-3.66 115.65-3.66 115.65 0 105.15 0 105.15-3.17Q104.2-2.22 102.99-1.49 101.79-0.76 100.43-0.27 99.08 0.22 97.62 0.48 96.17 0.73 94.73 0.73L94.73 0.73Q91.21 0.73 88.55-0.27 85.89-1.27 84.11-2.97 82.33-4.66 81.42-6.92 80.52-9.18 80.52-11.69ZM112.04-5.13L112.04-17.7 117.41-17.7 117.41-21.7 118.39-21.7 118.39-16.77 113.02-16.77 113.02-5.13 112.04-5.13ZM85.82-11.89L85.82-11.89Q85.82-9.86 86.54-8.23 87.26-6.59 88.5-5.44 89.75-4.3 91.46-3.66 93.17-3.03 95.14-3.03L95.14-3.03Q96.29-3.03 97.48-3.26 98.66-3.49 99.77-3.97 100.88-4.44 101.87-5.16 102.86-5.88 103.58-6.87 104.3-7.86 104.73-9.13 105.15-10.4 105.15-11.96L105.15-11.96Q105.15-13.7 104.35-15.25 103.54-16.8 102.19-17.97 100.83-19.14 99.03-19.82 97.22-20.51 95.22-20.51L95.22-20.51Q93.22-20.51 91.49-19.9 89.77-19.29 88.52-18.16 87.26-17.04 86.54-15.44 85.82-13.84 85.82-11.89ZM87.5-11.77L87.5-11.77Q87.5-13.31 88.08-14.59 88.65-15.87 89.68-16.81 90.7-17.75 92.12-18.27 93.53-18.8 95.22-18.8L95.22-18.8Q96.49-18.8 97.51-18.52 98.54-18.24 99.29-17.83 100.05-17.43 100.54-17 101.03-16.58 101.22-16.26L101.22-16.26Q99.91-16.99 98.51-17.43 97.12-17.87 95.22-17.87L95.22-17.87Q93.68-17.87 92.45-17.37 91.21-16.87 90.33-16.02 89.46-15.16 88.98-14.04 88.5-12.92 88.5-11.67L88.5-11.67Q88.5-10.5 88.77-9.47 89.04-8.45 89.64-7.58 90.24-6.71 91.2-5.99 92.17-5.27 93.53-4.74L93.53-4.74Q92-5 90.86-5.65 89.72-6.3 88.98-7.23 88.24-8.15 87.87-9.31 87.5-10.47 87.5-11.77ZM106.62 1.71L117.41 1.71 117.41-2.29 118.39-2.29 118.39 2.64 106.62 2.64 106.62 1.71ZM83.67-1.05L83.67-1.05Q84.67-0.24 85.94 0.4 87.21 1.05 88.65 1.5 90.09 1.95 91.64 2.2 93.19 2.44 94.75 2.44L94.75 2.44Q97.46 2.44 99.82 1.77 102.18 1.1 104.01-0.1L104.01-0.1 104.01 1.03Q102.18 2.12 99.77 2.75 97.37 3.37 94.78 3.37L94.78 3.37Q93 3.37 91.29 3.09 89.58 2.81 88.11 2.25 86.65 1.68 85.5 0.85 84.35 0.02 83.67-1.05ZM126.05 7.47L128.79 4.27Q129.98 5.52 131.46 6.36 132.94 7.2 134.46 7.71 135.99 8.23 137.46 8.45 138.92 8.67 140.09 8.67L140.09 8.67Q142.39 8.67 144.22 8.24 146.05 7.81 147.33 6.69 148.61 5.57 149.3 3.61 149.98 1.66 149.98-1.42L149.98-1.42 149.98-3.61Q149.05-2.73 147.88-2.03 146.71-1.32 145.37-0.81 144.02-0.29 142.55-0.02 141.07 0.24 139.56 0.24L139.56 0.24Q136.14 0.24 133.49-0.61 130.84-1.46 129.03-3.04 127.23-4.61 126.29-6.86 125.35-9.11 125.35-11.89L125.35-11.89Q125.35-13.4 125.79-14.9 126.22-16.41 127.09-17.79 127.96-19.17 129.24-20.35 130.52-21.53 132.18-22.41 133.84-23.29 135.89-23.79 137.94-24.29 140.34-24.29L140.34-24.29Q141.46-24.29 142.74-24.08 144.02-23.88 145.29-23.44 146.56-23 147.77-22.3 148.98-21.61 149.98-20.63L149.98-20.63 149.98-23.56 160.48-23.56 160.48-19.41 155.11-19.41 155.11-1.42Q155.11 2.51 154.01 5.18 152.91 7.84 150.93 9.45 148.95 11.06 146.23 11.76 143.51 12.45 140.26 12.45L140.26 12.45Q138.36 12.45 136.36 12.16 134.35 11.87 132.46 11.27 130.57 10.67 128.91 9.73 127.25 8.79 126.05 7.47L126.05 7.47ZM127.49 10.86L127.49 10.86Q128.72 11.74 130.25 12.38 131.79 13.01 133.48 13.4 135.16 13.79 136.89 13.98 138.63 14.16 140.26 14.16L140.26 14.16Q142.48 14.16 144.58 13.83 146.68 13.5 148.53 12.77 150.37 12.04 151.91 10.84 153.45 9.64 154.55 7.9 155.64 6.15 156.25 3.82 156.86 1.49 156.86-1.54L156.86-1.54 156.86-17.7 162.24-17.7 162.24-22.19 163.21-22.19 163.21-16.77 157.84-16.77 157.84-1.54Q157.84 1.64 157.21 4.1 156.57 6.57 155.42 8.42 154.28 10.28 152.67 11.55 151.05 12.82 149.1 13.6 147.15 14.38 144.9 14.73 142.66 15.09 140.26 15.09L140.26 15.09Q138.41 15.09 136.48 14.79 134.55 14.5 132.83 13.95 131.11 13.4 129.7 12.62 128.3 11.84 127.49 10.86ZM130.64-12.08L130.64-12.08Q130.64-10.21 131.24-8.63 131.84-7.06 133.02-5.92 134.21-4.79 135.95-4.15 137.7-3.52 139.97-3.52L139.97-3.52Q141.78-3.52 143.57-3.97 145.37-4.42 146.79-5.44 148.22-6.47 149.1-8.13 149.98-9.79 149.98-12.21L149.98-12.21Q149.98-13.94 149.22-15.45 148.47-16.97 147.15-18.09 145.83-19.21 144.06-19.86 142.29-20.51 140.29-20.51L140.29-20.51Q138.33-20.51 136.59-19.9 134.84-19.29 133.52-18.16 132.21-17.04 131.43-15.49 130.64-13.94 130.64-12.08ZM132.35-12.04L132.35-12.04Q132.35-13.43 132.94-14.66 133.52-15.89 134.57-16.81 135.62-17.72 137.09-18.26 138.55-18.8 140.29-18.8L140.29-18.8Q142.61-18.8 144.13-18.05 145.66-17.31 146.54-16.16L146.54-16.16Q145.95-16.53 145.33-16.85 144.71-17.16 143.96-17.4 143.22-17.63 142.31-17.76 141.41-17.9 140.29-17.9L140.29-17.9Q138.75-17.9 137.48-17.42 136.21-16.94 135.29-16.14 134.38-15.33 133.88-14.29 133.38-13.26 133.38-12.13L133.38-12.13Q133.38-9.74 134.51-8.04 135.65-6.35 138.29-5.3L138.29-5.3Q137.02-5.42 135.93-5.96 134.84-6.49 134.05-7.37 133.26-8.25 132.8-9.44 132.35-10.62 132.35-12.04ZM128.3-1.54L128.3-1.54Q129.3-0.73 130.61-0.09 131.91 0.56 133.39 1.01 134.87 1.46 136.44 1.71 138.02 1.95 139.58 1.95L139.58 1.95Q142.29 1.95 144.65 1.31 147 0.66 148.83-0.54L148.83-0.54 148.69 0.68Q146.85 1.78 144.52 2.33 142.19 2.88 139.6 2.88L139.6 2.88Q135.65 2.88 132.74 1.77 129.84 0.66 128.3-1.54ZM171.98-5.47L171.98-5.47Q171.49-6.71 171.26-8.18 171.03-9.64 171.03-11.4L171.03-11.4 171.03-19.41 166.88-19.41 166.88-23.56 176.28-23.56 176.28-13.48Q176.28-11.5 176.46-9.95 176.64-8.4 176.98-7.52L176.98-7.52Q177.42-6.4 178.13-5.62 178.84-4.83 179.73-4.35 180.62-3.86 181.66-3.64 182.7-3.42 183.82-3.42L183.82-3.42Q185.02-3.42 186.3-3.86 187.58-4.3 188.78-5.08 189.97-5.86 191.01-6.93 192.05-8.01 192.75-9.25L192.75-9.25 192.75-19.41 187.38-19.41 187.38-23.56 198-23.56 198-3.66 202.15-3.66 202.15 0 192.75 0 192.75-3.71Q191.97-2.76 190.86-1.95 189.75-1.15 188.4-0.55 187.04 0.05 185.48 0.39 183.92 0.73 182.23 0.73L182.23 0.73Q178.59 0.73 175.92-0.79 173.25-2.32 171.98-5.47ZM199.71-5.13L199.71-22.31 200.69-22.31 200.69-5.13 199.71-5.13ZM178.03-12.01L178.03-22.31 179.01-22.31 179.01-12.28Q179.01-10.38 179.38-9.11 179.74-7.84 180.35-7.03 180.96-6.23 181.74-5.79 182.53-5.35 183.36-5.1L183.36-5.1Q180.79-5.13 179.41-6.8 178.03-8.47 178.03-12.01L178.03-12.01ZM188.85-16.77L188.85-17.7 191.73-17.7 191.73-16.77 188.85-16.77ZM168.34-16.77L168.34-17.7 170-17.7 170-16.77 168.34-16.77ZM194.22 1.71L203.91 1.71 203.91-2.29 204.89-2.29 204.89 2.64 194.22 2.64 194.22 1.71ZM172.25-1.64L172.25-1.64Q174.15 0.42 176.54 1.43 178.94 2.44 182.26 2.44L182.26 2.44Q185.21 2.44 187.54 1.67 189.87 0.9 191.78-0.42L191.78-0.42 191.78 0.71Q189.63 2.1 187.31 2.73 184.99 3.37 182.28 3.37L182.28 3.37Q178.59 3.37 176.01 2.09 173.42 0.81 172.25-1.64ZM211.24-11.33L211.24-11.33Q211.24-13.92 212.19-16.26 213.14-18.6 215.05-20.39 216.95-22.17 219.78-23.23 222.61-24.29 226.35-24.29L226.35-24.29Q229.87-24.29 232.62-23.35 235.38-22.41 237.31-20.63 239.24-18.85 240.25-16.27 241.27-13.7 241.27-10.4L241.27-10.4 216.58-10.4Q216.8-8.64 217.72-7.28 218.63-5.91 220.05-4.97 221.47-4.03 223.26-3.54 225.06-3.05 227.01-3.05L227.01-3.05Q228.6-3.05 230.24-3.31 231.89-3.56 233.36-4 234.82-4.44 235.97-4.99 237.12-5.54 237.73-6.13L237.73-6.13 238.65-6.13 240.95-3.64Q238.43-1.49 234.83-0.38 231.23 0.73 226.89 0.73L226.89 0.73Q223.1 0.73 220.19-0.2 217.27-1.12 215.28-2.76 213.29-4.39 212.26-6.59 211.24-8.79 211.24-11.33ZM218.93-8.69L242.93-8.69Q242.98-9.06 243-9.48 243.02-9.91 243.02-10.4L243.02-10.4Q243.02-12.48 242.6-14.37 242.17-16.26 241.35-17.88 240.53-19.51 239.34-20.85 238.14-22.19 236.63-23.14L236.63-23.14Q238.24-22.51 239.59-21.4 240.95-20.29 241.93-18.7 242.9-17.11 243.45-15.04 244-12.96 244-10.4L244-10.4Q244-10.21 243.99-9.91 243.98-9.62 243.95-9.25 243.93-8.89 243.89-8.51 243.85-8.13 243.81-7.76L243.81-7.76 220.73-7.76Q221.2-6.98 222.44-6.16 223.69-5.35 225.67-4.79L225.67-4.79Q224.45-4.79 223.38-5.08 222.32-5.37 221.45-5.88 220.59-6.4 219.94-7.12 219.29-7.84 218.93-8.69L218.93-8.69ZM216.73-13.45L235.63-13.45Q235.24-15.14 234.42-16.46 233.6-17.77 232.4-18.66 231.21-19.56 229.67-20.03 228.13-20.51 226.3-20.51L226.3-20.51Q224.32-20.51 222.7-19.98 221.08-19.46 219.86-18.52 218.63-17.58 217.84-16.28 217.05-14.99 216.73-13.45L216.73-13.45ZM220.08-14.5L218.95-14.5Q219.86-16.5 221.8-17.65 223.74-18.8 226.3-18.8L226.3-18.8Q227.35-18.8 228.34-18.63 229.33-18.46 230.17-18.1 231.01-17.75 231.65-17.24 232.28-16.72 232.65-16.06L232.65-16.06Q231.26-16.99 229.67-17.43 228.08-17.87 226.25-17.87L226.25-17.87Q224.13-17.87 222.52-16.99 220.91-16.11 220.08-14.5L220.08-14.5ZM214.19-1.07L214.19-1.07Q216.56 0.61 219.7 1.54 222.83 2.47 226.89 2.47L226.89 2.47Q230.84 2.47 234.3 1.56 237.75 0.66 240.53-1.2L240.53-1.2 241.19-0.49Q238.04 1.64 234.57 2.51 231.09 3.39 227.28 3.39L227.28 3.39Q222.32 3.39 219.06 2.2 215.8 1 214.19-1.07Z" opacity="1" transform="matrix(1,0,0,1,0,0)" fill="#61777f" class="slogan-text-1" data-fill-palette-color="secondary" id="text-1"></path></svg></g></svg></g></svg></g></svg></g><g></g></svg></g></svg></g></svg></g><path d="M0 48.253L0 1 244.431 1 244.431 48.253 237.685 48.253 237.685 7.746 6.746 7.746 6.746 48.253 0 48.253M0 198.947L0 246.2 244.431 246.2 244.431 198.947 237.685 198.947 237.685 239.454 6.746 239.454 6.746 198.947 0 198.947" fill="#000000" stroke="transparent" data-fill-palette-color="primary"></path></svg></g><defs></defs></svg><rect width="244.43135999999998" height="247.2" fill="none" stroke="none" visibility="hidden"></rect></g></svg></g></svg>